<mxfile host="app.diagrams.net" modified="2023-12-15T16:00:11.051Z" agent="Mozilla/5.0 (X11; Ubuntu; Linux x86_64; rv:109.0) Gecko/20100101 Firefox/119.0" etag="skY4Qcl9iue51n0lu3H6" version="22.1.7" type="github">
  <diagram name="Page-1" id="tVcE4QUrPDovp9rtR5pz">
    <mxGraphModel dx="989" dy="528" grid="1" gridSize="5" guides="1" tooltips="1" connect="1" arrows="1" fold="1" page="1" pageScale="1" pageWidth="1169" pageHeight="827" math="0" shadow="0">
      <root>
        <mxCell id="0" />
        <mxCell id="1" parent="0" />
        <mxCell id="_uj4PQ5bRNfCSbIJm02j-57" value="&lt;span style=&quot;color: rgb(0, 0, 0); font-family: Helvetica; font-size: 9px; font-style: normal; font-variant-ligatures: normal; font-variant-caps: normal; font-weight: 400; letter-spacing: normal; orphans: 2; text-indent: 0px; text-transform: none; widows: 2; word-spacing: 0px; -webkit-text-stroke-width: 0px; text-decoration-thickness: initial; text-decoration-style: initial; text-decoration-color: initial; float: none; display: inline !important;&quot;&gt;Proposed Implementation - Secondary Device&lt;br&gt;&lt;/span&gt;" style="rounded=0;whiteSpace=wrap;html=1;fillColor=#d5e8d4;strokeColor=#82b366;verticalAlign=top;align=right;labelBackgroundColor=none;" parent="1" vertex="1">
          <mxGeometry x="100" y="360" width="500" height="260" as="geometry" />
        </mxCell>
        <mxCell id="_uj4PQ5bRNfCSbIJm02j-56" value="Proposed Implementation - Main Device" style="rounded=0;whiteSpace=wrap;html=1;fillColor=#d5e8d4;strokeColor=#82b366;verticalAlign=top;align=right;fontSize=9;fontStyle=0" parent="1" vertex="1">
          <mxGeometry x="320" y="180" width="280" height="120" as="geometry" />
        </mxCell>
        <mxCell id="_uj4PQ5bRNfCSbIJm02j-11" style="edgeStyle=orthogonalEdgeStyle;rounded=0;orthogonalLoop=1;jettySize=auto;html=1;exitX=1;exitY=0.25;exitDx=0;exitDy=0;entryX=0;entryY=0.25;entryDx=0;entryDy=0;strokeColor=#CC0000;endArrow=none;endFill=0;strokeWidth=2;fontSize=10;" parent="1" source="_uj4PQ5bRNfCSbIJm02j-1" target="_uj4PQ5bRNfCSbIJm02j-2" edge="1">
          <mxGeometry relative="1" as="geometry" />
        </mxCell>
        <mxCell id="_uj4PQ5bRNfCSbIJm02j-12" style="edgeStyle=orthogonalEdgeStyle;rounded=0;orthogonalLoop=1;jettySize=auto;html=1;exitX=1;exitY=0.75;exitDx=0;exitDy=0;entryX=0;entryY=0.75;entryDx=0;entryDy=0;endArrow=none;endFill=0;strokeWidth=2;fontSize=10;" parent="1" source="_uj4PQ5bRNfCSbIJm02j-1" target="_uj4PQ5bRNfCSbIJm02j-2" edge="1">
          <mxGeometry relative="1" as="geometry" />
        </mxCell>
        <mxCell id="_uj4PQ5bRNfCSbIJm02j-1" value="Battery&lt;br style=&quot;font-size: 10px;&quot;&gt;&lt;font style=&quot;font-size: 8px;&quot;&gt;(UAV)&lt;/font&gt;" style="rounded=0;whiteSpace=wrap;html=1;fontSize=10;" parent="1" vertex="1">
          <mxGeometry x="120" y="60" width="80" height="40" as="geometry" />
        </mxCell>
        <mxCell id="_uj4PQ5bRNfCSbIJm02j-13" style="edgeStyle=orthogonalEdgeStyle;rounded=0;orthogonalLoop=1;jettySize=auto;html=1;exitX=1;exitY=0.25;exitDx=0;exitDy=0;entryX=0;entryY=0.25;entryDx=0;entryDy=0;strokeColor=#CC0000;endArrow=none;endFill=0;strokeWidth=2;fontSize=10;" parent="1" source="_uj4PQ5bRNfCSbIJm02j-2" target="_uj4PQ5bRNfCSbIJm02j-4" edge="1">
          <mxGeometry relative="1" as="geometry" />
        </mxCell>
        <mxCell id="_uj4PQ5bRNfCSbIJm02j-14" style="edgeStyle=orthogonalEdgeStyle;rounded=0;orthogonalLoop=1;jettySize=auto;html=1;exitX=1;exitY=0.75;exitDx=0;exitDy=0;entryX=0;entryY=0.75;entryDx=0;entryDy=0;endArrow=none;endFill=0;strokeWidth=2;fontSize=10;" parent="1" source="_uj4PQ5bRNfCSbIJm02j-2" target="_uj4PQ5bRNfCSbIJm02j-4" edge="1">
          <mxGeometry relative="1" as="geometry" />
        </mxCell>
        <mxCell id="_uj4PQ5bRNfCSbIJm02j-21" style="edgeStyle=orthogonalEdgeStyle;rounded=0;orthogonalLoop=1;jettySize=auto;html=1;exitX=0.75;exitY=1;exitDx=0;exitDy=0;entryX=0;entryY=0.25;entryDx=0;entryDy=0;strokeColor=#CC0000;endArrow=none;endFill=0;strokeWidth=2;fontSize=10;" parent="1" source="_uj4PQ5bRNfCSbIJm02j-2" target="_uj4PQ5bRNfCSbIJm02j-6" edge="1">
          <mxGeometry relative="1" as="geometry" />
        </mxCell>
        <mxCell id="_uj4PQ5bRNfCSbIJm02j-22" style="edgeStyle=orthogonalEdgeStyle;rounded=0;orthogonalLoop=1;jettySize=auto;html=1;exitX=0.25;exitY=1;exitDx=0;exitDy=0;entryX=0;entryY=0.75;entryDx=0;entryDy=0;endArrow=none;endFill=0;strokeWidth=2;fontSize=10;" parent="1" source="_uj4PQ5bRNfCSbIJm02j-2" target="_uj4PQ5bRNfCSbIJm02j-6" edge="1">
          <mxGeometry relative="1" as="geometry" />
        </mxCell>
        <mxCell id="_uj4PQ5bRNfCSbIJm02j-2" value="Power Distribution Board" style="rounded=0;whiteSpace=wrap;html=1;fontSize=10;" parent="1" vertex="1">
          <mxGeometry x="240" y="60" width="80" height="40" as="geometry" />
        </mxCell>
        <mxCell id="_uj4PQ5bRNfCSbIJm02j-19" style="edgeStyle=orthogonalEdgeStyle;rounded=0;orthogonalLoop=1;jettySize=auto;html=1;exitX=0.5;exitY=1;exitDx=0;exitDy=0;entryX=0.5;entryY=0;entryDx=0;entryDy=0;strokeColor=#007FFF;fontSize=10;startArrow=classic;startFill=1;endArrow=classic;endFill=1;" parent="1" source="_uj4PQ5bRNfCSbIJm02j-4" target="_uj4PQ5bRNfCSbIJm02j-6" edge="1">
          <mxGeometry relative="1" as="geometry" />
        </mxCell>
        <mxCell id="s3DaozMgUBLGVRtoMl2w-2" value="&lt;div&gt;Wired&lt;/div&gt;&lt;div&gt;Communication&lt;/div&gt;" style="edgeLabel;html=1;align=center;verticalAlign=middle;resizable=0;points=[];" parent="_uj4PQ5bRNfCSbIJm02j-19" vertex="1" connectable="0">
          <mxGeometry x="-0.225" y="2" relative="1" as="geometry">
            <mxPoint x="-2" y="-9" as="offset" />
          </mxGeometry>
        </mxCell>
        <mxCell id="_uj4PQ5bRNfCSbIJm02j-4" value="Flight Controller" style="rounded=0;whiteSpace=wrap;html=1;fontSize=10;" parent="1" vertex="1">
          <mxGeometry x="360" y="60" width="80" height="40" as="geometry" />
        </mxCell>
        <mxCell id="_uj4PQ5bRNfCSbIJm02j-9" value="" style="edgeStyle=orthogonalEdgeStyle;rounded=0;orthogonalLoop=1;jettySize=auto;html=1;strokeColor=#007FFF;exitX=1;exitY=0.25;exitDx=0;exitDy=0;fontSize=10;" parent="1" source="_uj4PQ5bRNfCSbIJm02j-6" target="_uj4PQ5bRNfCSbIJm02j-8" edge="1">
          <mxGeometry relative="1" as="geometry" />
        </mxCell>
        <mxCell id="_uj4PQ5bRNfCSbIJm02j-23" style="edgeStyle=orthogonalEdgeStyle;rounded=0;orthogonalLoop=1;jettySize=auto;html=1;exitX=1;exitY=0.75;exitDx=0;exitDy=0;entryX=0;entryY=0.5;entryDx=0;entryDy=0;strokeColor=#007FFF;fontSize=10;" parent="1" source="_uj4PQ5bRNfCSbIJm02j-6" target="_uj4PQ5bRNfCSbIJm02j-10" edge="1">
          <mxGeometry relative="1" as="geometry" />
        </mxCell>
        <mxCell id="_uj4PQ5bRNfCSbIJm02j-25" value="" style="edgeStyle=orthogonalEdgeStyle;rounded=0;orthogonalLoop=1;jettySize=auto;html=1;dashed=1;strokeWidth=2;strokeColor=#007FFF;fontSize=10;startArrow=classic;startFill=1;" parent="1" source="_uj4PQ5bRNfCSbIJm02j-6" target="_uj4PQ5bRNfCSbIJm02j-24" edge="1">
          <mxGeometry relative="1" as="geometry" />
        </mxCell>
        <mxCell id="_uj4PQ5bRNfCSbIJm02j-55" value="Wireless&lt;br style=&quot;font-size: 10px;&quot;&gt;Communication" style="edgeLabel;html=1;align=center;verticalAlign=middle;resizable=0;points=[];fontSize=10;" parent="_uj4PQ5bRNfCSbIJm02j-25" vertex="1" connectable="0">
          <mxGeometry x="0.15" y="2" relative="1" as="geometry">
            <mxPoint x="-2" y="-33" as="offset" />
          </mxGeometry>
        </mxCell>
        <mxCell id="_uj4PQ5bRNfCSbIJm02j-6" value="OBC&lt;br style=&quot;font-size: 10px;&quot;&gt;Master" style="rounded=0;whiteSpace=wrap;html=1;fontSize=10;" parent="1" vertex="1">
          <mxGeometry x="360" y="220" width="80" height="40" as="geometry" />
        </mxCell>
        <mxCell id="_uj4PQ5bRNfCSbIJm02j-8" value="RTC" style="rounded=0;whiteSpace=wrap;html=1;fontSize=10;" parent="1" vertex="1">
          <mxGeometry x="480" y="210" width="80" height="20" as="geometry" />
        </mxCell>
        <mxCell id="_uj4PQ5bRNfCSbIJm02j-10" value="Storage Unit" style="rounded=0;whiteSpace=wrap;html=1;fontSize=10;" parent="1" vertex="1">
          <mxGeometry x="480" y="250" width="80" height="20" as="geometry" />
        </mxCell>
        <mxCell id="bVLdCfMsv9ZkEpp4oeo9-4" style="edgeStyle=orthogonalEdgeStyle;rounded=0;orthogonalLoop=1;jettySize=auto;html=1;exitX=1;exitY=0.5;exitDx=0;exitDy=0;entryX=0;entryY=0.5;entryDx=0;entryDy=0;strokeColor=#007FFF;" edge="1" parent="1" source="_uj4PQ5bRNfCSbIJm02j-24" target="bVLdCfMsv9ZkEpp4oeo9-1">
          <mxGeometry relative="1" as="geometry" />
        </mxCell>
        <mxCell id="bVLdCfMsv9ZkEpp4oeo9-6" style="edgeStyle=orthogonalEdgeStyle;rounded=0;orthogonalLoop=1;jettySize=auto;html=1;exitX=0.25;exitY=1;exitDx=0;exitDy=0;entryX=0.5;entryY=0;entryDx=0;entryDy=0;strokeColor=#007FFF;endArrow=none;endFill=0;" edge="1" parent="1" source="_uj4PQ5bRNfCSbIJm02j-24" target="bVLdCfMsv9ZkEpp4oeo9-18">
          <mxGeometry relative="1" as="geometry" />
        </mxCell>
        <mxCell id="_uj4PQ5bRNfCSbIJm02j-24" value="OBC&lt;br style=&quot;font-size: 10px;&quot;&gt;Slave" style="rounded=0;whiteSpace=wrap;html=1;fontSize=10;" parent="1" vertex="1">
          <mxGeometry x="360" y="440" width="80" height="40" as="geometry" />
        </mxCell>
        <mxCell id="_uj4PQ5bRNfCSbIJm02j-36" style="edgeStyle=orthogonalEdgeStyle;rounded=0;orthogonalLoop=1;jettySize=auto;html=1;exitX=1;exitY=0.25;exitDx=0;exitDy=0;entryX=0;entryY=0.25;entryDx=0;entryDy=0;strokeColor=#CC0000;endArrow=none;endFill=0;strokeWidth=2;fontSize=10;" parent="1" source="_uj4PQ5bRNfCSbIJm02j-38" target="_uj4PQ5bRNfCSbIJm02j-41" edge="1">
          <mxGeometry relative="1" as="geometry" />
        </mxCell>
        <mxCell id="_uj4PQ5bRNfCSbIJm02j-37" style="edgeStyle=orthogonalEdgeStyle;rounded=0;orthogonalLoop=1;jettySize=auto;html=1;exitX=1;exitY=0.75;exitDx=0;exitDy=0;entryX=0;entryY=0.75;entryDx=0;entryDy=0;endArrow=none;endFill=0;strokeWidth=2;fontSize=10;" parent="1" source="_uj4PQ5bRNfCSbIJm02j-38" target="_uj4PQ5bRNfCSbIJm02j-41" edge="1">
          <mxGeometry relative="1" as="geometry" />
        </mxCell>
        <mxCell id="_uj4PQ5bRNfCSbIJm02j-38" value="Battery&lt;br style=&quot;font-size: 10px;&quot;&gt;&lt;font style=&quot;font-size: 8px;&quot;&gt;(Stand-Alone)&lt;/font&gt;" style="rounded=0;whiteSpace=wrap;html=1;fontSize=10;" parent="1" vertex="1">
          <mxGeometry x="120" y="440" width="80" height="40" as="geometry" />
        </mxCell>
        <mxCell id="_uj4PQ5bRNfCSbIJm02j-39" style="edgeStyle=orthogonalEdgeStyle;rounded=0;orthogonalLoop=1;jettySize=auto;html=1;exitX=1;exitY=0.25;exitDx=0;exitDy=0;entryX=0;entryY=0.25;entryDx=0;entryDy=0;strokeColor=#CC0000;endArrow=none;endFill=0;strokeWidth=2;fontSize=10;" parent="1" source="_uj4PQ5bRNfCSbIJm02j-41" target="_uj4PQ5bRNfCSbIJm02j-24" edge="1">
          <mxGeometry relative="1" as="geometry">
            <mxPoint x="360" y="450" as="targetPoint" />
          </mxGeometry>
        </mxCell>
        <mxCell id="_uj4PQ5bRNfCSbIJm02j-40" style="edgeStyle=orthogonalEdgeStyle;rounded=0;orthogonalLoop=1;jettySize=auto;html=1;exitX=1;exitY=0.75;exitDx=0;exitDy=0;entryX=0;entryY=0.75;entryDx=0;entryDy=0;endArrow=none;endFill=0;strokeWidth=2;fontSize=10;" parent="1" source="_uj4PQ5bRNfCSbIJm02j-41" target="_uj4PQ5bRNfCSbIJm02j-24" edge="1">
          <mxGeometry relative="1" as="geometry">
            <mxPoint x="360" y="470" as="targetPoint" />
          </mxGeometry>
        </mxCell>
        <mxCell id="_uj4PQ5bRNfCSbIJm02j-49" style="edgeStyle=orthogonalEdgeStyle;rounded=0;orthogonalLoop=1;jettySize=auto;html=1;exitX=1;exitY=0.5;exitDx=0;exitDy=0;entryX=0;entryY=0.25;entryDx=0;entryDy=0;strokeWidth=2;strokeColor=#CC0000;endArrow=none;endFill=0;fontSize=10;" parent="1" source="bVLdCfMsv9ZkEpp4oeo9-14" target="_uj4PQ5bRNfCSbIJm02j-48" edge="1">
          <mxGeometry relative="1" as="geometry">
            <Array as="points">
              <mxPoint x="330" y="530" />
              <mxPoint x="330" y="530" />
            </Array>
          </mxGeometry>
        </mxCell>
        <mxCell id="_uj4PQ5bRNfCSbIJm02j-50" style="edgeStyle=orthogonalEdgeStyle;rounded=0;orthogonalLoop=1;jettySize=auto;html=1;exitX=0.5;exitY=1;exitDx=0;exitDy=0;entryX=0;entryY=0.75;entryDx=0;entryDy=0;strokeWidth=2;endArrow=none;endFill=0;fontSize=10;" parent="1" source="bVLdCfMsv9ZkEpp4oeo9-11" edge="1">
          <mxGeometry relative="1" as="geometry">
            <mxPoint x="261" y="532" as="sourcePoint" />
            <mxPoint x="481" y="550" as="targetPoint" />
            <Array as="points">
              <mxPoint x="260" y="550" />
            </Array>
          </mxGeometry>
        </mxCell>
        <mxCell id="_uj4PQ5bRNfCSbIJm02j-41" value="Power Management System" style="rounded=0;whiteSpace=wrap;html=1;fontSize=10;" parent="1" vertex="1">
          <mxGeometry x="240" y="440" width="80" height="40" as="geometry" />
        </mxCell>
        <mxCell id="_uj4PQ5bRNfCSbIJm02j-44" value="" style="edgeStyle=orthogonalEdgeStyle;rounded=0;orthogonalLoop=1;jettySize=auto;html=1;strokeColor=#007FFF;exitX=1;exitY=0.25;exitDx=0;exitDy=0;fontSize=10;entryX=0;entryY=0.5;entryDx=0;entryDy=0;" parent="1" target="_uj4PQ5bRNfCSbIJm02j-46" edge="1">
          <mxGeometry relative="1" as="geometry">
            <mxPoint x="440" y="450" as="sourcePoint" />
          </mxGeometry>
        </mxCell>
        <mxCell id="_uj4PQ5bRNfCSbIJm02j-45" style="edgeStyle=orthogonalEdgeStyle;rounded=0;orthogonalLoop=1;jettySize=auto;html=1;exitX=1;exitY=0.75;exitDx=0;exitDy=0;entryX=0;entryY=0.5;entryDx=0;entryDy=0;strokeColor=#007FFF;fontSize=10;" parent="1" target="_uj4PQ5bRNfCSbIJm02j-47" edge="1">
          <mxGeometry relative="1" as="geometry">
            <mxPoint x="440" y="470" as="sourcePoint" />
          </mxGeometry>
        </mxCell>
        <mxCell id="_uj4PQ5bRNfCSbIJm02j-46" value="RTC" style="rounded=0;whiteSpace=wrap;html=1;fontSize=10;" parent="1" vertex="1">
          <mxGeometry x="480" y="430" width="80" height="20" as="geometry" />
        </mxCell>
        <mxCell id="_uj4PQ5bRNfCSbIJm02j-47" value="Storage Unit" style="rounded=0;whiteSpace=wrap;html=1;fontSize=10;" parent="1" vertex="1">
          <mxGeometry x="480" y="470" width="80" height="20" as="geometry" />
        </mxCell>
        <mxCell id="_uj4PQ5bRNfCSbIJm02j-51" style="edgeStyle=orthogonalEdgeStyle;rounded=0;orthogonalLoop=1;jettySize=auto;html=1;exitX=0.5;exitY=0;exitDx=0;exitDy=0;entryX=0.75;entryY=1;entryDx=0;entryDy=0;strokeColor=#007FFF;fontSize=10;" parent="1" source="_uj4PQ5bRNfCSbIJm02j-48" target="_uj4PQ5bRNfCSbIJm02j-24" edge="1">
          <mxGeometry relative="1" as="geometry">
            <Array as="points">
              <mxPoint x="520" y="510" />
              <mxPoint x="420" y="510" />
            </Array>
          </mxGeometry>
        </mxCell>
        <mxCell id="_uj4PQ5bRNfCSbIJm02j-52" value="&lt;span style=&quot;&quot;&gt;FeedBack&lt;/span&gt;" style="edgeLabel;html=1;align=center;verticalAlign=middle;resizable=0;points=[];fontSize=10;labelBackgroundColor=#D5E8D4;" parent="_uj4PQ5bRNfCSbIJm02j-51" vertex="1" connectable="0">
          <mxGeometry x="0.5686" y="-1" relative="1" as="geometry">
            <mxPoint x="49" as="offset" />
          </mxGeometry>
        </mxCell>
        <mxCell id="_uj4PQ5bRNfCSbIJm02j-59" value="" style="edgeStyle=orthogonalEdgeStyle;rounded=0;orthogonalLoop=1;jettySize=auto;html=1;endArrow=none;endFill=0;shape=link;" parent="1" source="_uj4PQ5bRNfCSbIJm02j-48" target="_uj4PQ5bRNfCSbIJm02j-58" edge="1">
          <mxGeometry relative="1" as="geometry" />
        </mxCell>
        <mxCell id="_uj4PQ5bRNfCSbIJm02j-60" value="Mechanical&lt;br&gt;Connection" style="edgeLabel;html=1;align=center;verticalAlign=middle;resizable=0;points=[];" parent="_uj4PQ5bRNfCSbIJm02j-59" vertex="1" connectable="0">
          <mxGeometry x="0.5911" y="1" relative="1" as="geometry">
            <mxPoint x="-15" y="1" as="offset" />
          </mxGeometry>
        </mxCell>
        <mxCell id="_uj4PQ5bRNfCSbIJm02j-48" value="Servo" style="rounded=0;whiteSpace=wrap;html=1;fontSize=10;" parent="1" vertex="1">
          <mxGeometry x="480" y="520" width="80" height="40" as="geometry" />
        </mxCell>
        <mxCell id="_uj4PQ5bRNfCSbIJm02j-54" value="" style="edgeStyle=orthogonalEdgeStyle;rounded=0;orthogonalLoop=1;jettySize=auto;html=1;fontSize=10;" parent="1" source="_uj4PQ5bRNfCSbIJm02j-53" target="_uj4PQ5bRNfCSbIJm02j-41" edge="1">
          <mxGeometry relative="1" as="geometry" />
        </mxCell>
        <mxCell id="_uj4PQ5bRNfCSbIJm02j-53" value="Switch" style="rounded=0;whiteSpace=wrap;html=1;fontSize=10;" parent="1" vertex="1">
          <mxGeometry x="260" y="380" width="40" height="20" as="geometry" />
        </mxCell>
        <mxCell id="_uj4PQ5bRNfCSbIJm02j-58" value="Propeller" style="rounded=0;whiteSpace=wrap;html=1;fontSize=10;" parent="1" vertex="1">
          <mxGeometry x="680" y="520" width="80" height="40" as="geometry" />
        </mxCell>
        <mxCell id="s3DaozMgUBLGVRtoMl2w-4" value="&lt;div&gt;Topics&lt;/div&gt;&lt;div&gt;-&amp;gt; Wired Communication&lt;br&gt;&lt;/div&gt;&lt;div&gt;&lt;span style=&quot;&quot;&gt;&lt;span style=&quot;white-space: pre;&quot;&gt;&amp;nbsp;&amp;nbsp;&amp;nbsp;&amp;nbsp;&lt;span style=&quot;white-space: pre;&quot;&gt;&#x9;&lt;/span&gt;&lt;/span&gt;&lt;/span&gt;- Flight Phase&lt;/div&gt;&lt;div&gt;&lt;span style=&quot;&quot;&gt;&lt;span style=&quot;white-space: pre;&quot;&gt;&amp;nbsp;&amp;nbsp;&amp;nbsp;&amp;nbsp;&lt;span style=&quot;white-space: pre;&quot;&gt;&#x9;&lt;/span&gt;&lt;/span&gt;&lt;/span&gt;- Heartbeat&lt;/div&gt;&lt;div&gt;&lt;span style=&quot;white-space: pre;&quot;&gt;&#x9;&lt;/span&gt;- System Status&lt;br&gt;&lt;/div&gt;&lt;div&gt;&lt;span style=&quot;&quot;&gt;&lt;span style=&quot;white-space: pre;&quot;&gt;&amp;nbsp;&amp;nbsp;&amp;nbsp;&amp;nbsp;&lt;/span&gt;&lt;/span&gt;&lt;span style=&quot;white-space: pre;&quot;&gt;&#x9;&lt;/span&gt;- GNSS Epoch Time&lt;/div&gt;&lt;div&gt;&lt;br&gt;&lt;/div&gt;&lt;div&gt;-&amp;gt; Wired Communication&lt;br&gt;&lt;div&gt;&lt;span style=&quot;white-space: pre;&quot;&gt;&#x9;&lt;/span&gt;- Control Command&lt;br&gt;&lt;/div&gt;&lt;div&gt;&lt;span style=&quot;&quot;&gt;&lt;span style=&quot;white-space: pre;&quot;&gt;&amp;nbsp;&amp;nbsp;&amp;nbsp;&amp;nbsp;&lt;span style=&quot;white-space: pre;&quot;&gt;&#x9;&lt;/span&gt;&lt;/span&gt;&lt;/span&gt;- Heartbeat&lt;br&gt;&lt;/div&gt;&lt;div&gt;&lt;span style=&quot;white-space: pre;&quot;&gt;&#x9;&lt;/span&gt;- Device Status&lt;/div&gt;&lt;div&gt;&lt;span style=&quot;white-space: pre;&quot;&gt;&#x9;&lt;/span&gt;- Epoch Time&lt;/div&gt;&lt;div&gt;&lt;br&gt;&lt;/div&gt;&lt;/div&gt;" style="text;html=1;strokeColor=#6c8ebf;fillColor=#dae8fc;align=left;verticalAlign=top;whiteSpace=wrap;rounded=0;" parent="1" vertex="1">
          <mxGeometry x="660" y="20" width="160" height="180" as="geometry" />
        </mxCell>
        <mxCell id="bVLdCfMsv9ZkEpp4oeo9-1" value="Buzzer" style="rounded=0;whiteSpace=wrap;html=1;fontSize=10;" vertex="1" parent="1">
          <mxGeometry x="480" y="450" width="80" height="20" as="geometry" />
        </mxCell>
        <mxCell id="bVLdCfMsv9ZkEpp4oeo9-2" value="&lt;div&gt;sistema para bloquear o angulo da propeler&lt;/div&gt;&lt;div&gt;- mecanico&lt;br&gt;&lt;/div&gt;" style="text;html=1;align=center;verticalAlign=middle;resizable=0;points=[];autosize=1;strokeColor=none;fillColor=none;" vertex="1" parent="1">
          <mxGeometry x="625" y="253" width="250" height="40" as="geometry" />
        </mxCell>
        <mxCell id="bVLdCfMsv9ZkEpp4oeo9-3" value="&lt;div&gt;zephyr / uROS&lt;/div&gt;" style="text;html=1;align=center;verticalAlign=middle;resizable=0;points=[];autosize=1;strokeColor=none;fillColor=none;" vertex="1" parent="1">
          <mxGeometry x="700" y="318" width="100" height="30" as="geometry" />
        </mxCell>
        <mxCell id="bVLdCfMsv9ZkEpp4oeo9-10" style="edgeStyle=orthogonalEdgeStyle;rounded=0;orthogonalLoop=1;jettySize=auto;html=1;exitX=1;exitY=0.5;exitDx=0;exitDy=0;entryX=0;entryY=0.5;entryDx=0;entryDy=0;strokeColor=#007FFF;" edge="1" parent="1" source="bVLdCfMsv9ZkEpp4oeo9-18" target="_uj4PQ5bRNfCSbIJm02j-48">
          <mxGeometry relative="1" as="geometry" />
        </mxCell>
        <mxCell id="bVLdCfMsv9ZkEpp4oeo9-17" value="PWM" style="edgeLabel;html=1;align=center;verticalAlign=middle;resizable=0;points=[];labelBackgroundColor=#D5E8D4;" vertex="1" connectable="0" parent="bVLdCfMsv9ZkEpp4oeo9-10">
          <mxGeometry x="0.1793" y="-1" relative="1" as="geometry">
            <mxPoint x="-15" y="-1" as="offset" />
          </mxGeometry>
        </mxCell>
        <mxCell id="bVLdCfMsv9ZkEpp4oeo9-13" style="edgeStyle=orthogonalEdgeStyle;rounded=0;orthogonalLoop=1;jettySize=auto;html=1;exitX=1;exitY=0.75;exitDx=0;exitDy=0;entryX=0;entryY=0.5;entryDx=0;entryDy=0;endArrow=none;endFill=0;strokeWidth=2;" edge="1" parent="1" source="bVLdCfMsv9ZkEpp4oeo9-5" target="bVLdCfMsv9ZkEpp4oeo9-11">
          <mxGeometry relative="1" as="geometry">
            <Array as="points">
              <mxPoint x="255" y="550" />
            </Array>
          </mxGeometry>
        </mxCell>
        <mxCell id="bVLdCfMsv9ZkEpp4oeo9-16" style="edgeStyle=orthogonalEdgeStyle;rounded=0;orthogonalLoop=1;jettySize=auto;html=1;entryX=0;entryY=0.5;entryDx=0;entryDy=0;strokeColor=#CC0000;strokeWidth=2;endArrow=none;endFill=0;exitX=1;exitY=0.25;exitDx=0;exitDy=0;" edge="1" parent="1" source="bVLdCfMsv9ZkEpp4oeo9-5" target="bVLdCfMsv9ZkEpp4oeo9-14">
          <mxGeometry relative="1" as="geometry">
            <mxPoint x="210" y="550" as="sourcePoint" />
            <Array as="points" />
          </mxGeometry>
        </mxCell>
        <mxCell id="bVLdCfMsv9ZkEpp4oeo9-5" value="Stand Alone&lt;br&gt;&lt;div&gt;Controller&lt;/div&gt;" style="rounded=0;whiteSpace=wrap;html=1;fontSize=10;" vertex="1" parent="1">
          <mxGeometry x="120" y="520" width="80" height="40" as="geometry" />
        </mxCell>
        <mxCell id="bVLdCfMsv9ZkEpp4oeo9-12" value="" style="edgeStyle=orthogonalEdgeStyle;rounded=0;orthogonalLoop=1;jettySize=auto;html=1;exitX=0.25;exitY=1;exitDx=0;exitDy=0;entryX=0.5;entryY=0;entryDx=0;entryDy=0;strokeWidth=2;endArrow=none;endFill=0;fontSize=10;" edge="1" parent="1" source="_uj4PQ5bRNfCSbIJm02j-41" target="bVLdCfMsv9ZkEpp4oeo9-11">
          <mxGeometry relative="1" as="geometry">
            <mxPoint x="260" y="480" as="sourcePoint" />
            <mxPoint x="480" y="550" as="targetPoint" />
            <Array as="points">
              <mxPoint x="260" y="500" />
              <mxPoint x="260" y="500" />
            </Array>
          </mxGeometry>
        </mxCell>
        <mxCell id="bVLdCfMsv9ZkEpp4oeo9-11" value="" style="ellipse;whiteSpace=wrap;html=1;aspect=fixed;fillColor=#000000;" vertex="1" parent="1">
          <mxGeometry x="257.5" y="547.5" width="5" height="5" as="geometry" />
        </mxCell>
        <mxCell id="bVLdCfMsv9ZkEpp4oeo9-15" value="" style="edgeStyle=orthogonalEdgeStyle;rounded=0;orthogonalLoop=1;jettySize=auto;html=1;exitX=0.75;exitY=1;exitDx=0;exitDy=0;entryX=0.5;entryY=0;entryDx=0;entryDy=0;strokeWidth=2;strokeColor=#CC0000;endArrow=none;endFill=0;fontSize=10;" edge="1" parent="1" source="_uj4PQ5bRNfCSbIJm02j-41" target="bVLdCfMsv9ZkEpp4oeo9-14">
          <mxGeometry relative="1" as="geometry">
            <mxPoint x="300" y="480" as="sourcePoint" />
            <mxPoint x="480" y="530" as="targetPoint" />
          </mxGeometry>
        </mxCell>
        <mxCell id="bVLdCfMsv9ZkEpp4oeo9-14" value="" style="ellipse;whiteSpace=wrap;html=1;aspect=fixed;fillColor=#CC0000;strokeColor=#CC0000;" vertex="1" parent="1">
          <mxGeometry x="297.5" y="527.5" width="5" height="5" as="geometry" />
        </mxCell>
        <mxCell id="bVLdCfMsv9ZkEpp4oeo9-19" value="" style="edgeStyle=orthogonalEdgeStyle;rounded=0;orthogonalLoop=1;jettySize=auto;html=1;exitX=1;exitY=0.5;exitDx=0;exitDy=0;entryX=0;entryY=0.5;entryDx=0;entryDy=0;strokeColor=#007FFF;endArrow=none;endFill=0;" edge="1" parent="1" source="bVLdCfMsv9ZkEpp4oeo9-5" target="bVLdCfMsv9ZkEpp4oeo9-18">
          <mxGeometry relative="1" as="geometry">
            <mxPoint x="200" y="540" as="sourcePoint" />
            <mxPoint x="480" y="540" as="targetPoint" />
          </mxGeometry>
        </mxCell>
        <mxCell id="bVLdCfMsv9ZkEpp4oeo9-18" value="" style="ellipse;whiteSpace=wrap;html=1;aspect=fixed;fillColor=#007FFF;strokeColor=#007FFF;" vertex="1" parent="1">
          <mxGeometry x="377.5" y="537.5" width="5" height="5" as="geometry" />
        </mxCell>
      </root>
    </mxGraphModel>
  </diagram>
</mxfile>
